<svg xmlns="http://www.w3.org/2000/svg" width="64pt" height="64pt" viewBox="0 0 64 64"><g id="surface1"><path style="stroke:none;fill-rule:nonzero;fill:#6f1eaa;fill-opacity:1" d="M57.332 64H6.668A6.674 6.674 0 0 1 0 57.332V6.668A6.674 6.674 0 0 1 6.668 0h50.664A6.674 6.674 0 0 1 64 6.668v50.664A6.674 6.674 0 0 1 57.332 64ZM6.668 2.668c-2.207 0-4 1.793-4 4v50.664c0 2.207 1.793 4 4 4h50.664c2.207 0 4-1.793 4-4V6.668c0-2.207-1.793-4-4-4Zm0 0"/><path style="stroke:none;fill-rule:nonzero;fill:#6f1eaa;fill-opacity:1" d="M44 21.332H20A1.334 1.334 0 0 1 18.668 20c0-.734.598-1.332 1.332-1.332h24c.734 0 1.332.598 1.332 1.332 0 .734-.598 1.332-1.332 1.332ZM44 33.332H20A1.334 1.334 0 0 1 18.668 32c0-.734.598-1.332 1.332-1.332h24c.734 0 1.332.598 1.332 1.332 0 .734-.598 1.332-1.332 1.332ZM44 45.332H20A1.334 1.334 0 0 1 18.668 44c0-.734.598-1.332 1.332-1.332h24c.734 0 1.332.598 1.332 1.332 0 .734-.598 1.332-1.332 1.332Zm0 0"/></g></svg>