<?xml version="1.0" encoding="UTF-8"?>
<svg xmlns="http://www.w3.org/2000/svg" xmlns:xlink="http://www.w3.org/1999/xlink" width="64pt" height="64pt" viewBox="0 0 64 64" version="1.1">
<g id="surface1">
<path style=" stroke:none;fill-rule:nonzero;fill:rgb(111,30,170);fill-opacity:1;" d="M 57.332031 64 L 6.667969 64 C 2.988281 64 0 61.007812 0 57.332031 L 0 6.667969 C 0 2.992188 2.988281 0 6.667969 0 L 57.332031 0 C 61.011719 0 64 2.992188 64 6.667969 L 64 57.332031 C 64 61.007812 61.011719 64 57.332031 64 Z M 6.667969 2.667969 C 4.460938 2.667969 2.667969 4.460938 2.667969 6.667969 L 2.667969 57.332031 C 2.667969 59.539062 4.460938 61.332031 6.667969 61.332031 L 57.332031 61.332031 C 59.539062 61.332031 61.332031 59.539062 61.332031 57.332031 L 61.332031 6.667969 C 61.332031 4.460938 59.539062 2.667969 57.332031 2.667969 Z M 6.667969 2.667969 "/>
<path style=" stroke:none;fill-rule:nonzero;fill:rgb(111,30,170);fill-opacity:1;" d="M 44 21.332031 L 20 21.332031 C 19.265625 21.332031 18.667969 20.734375 18.667969 20 C 18.667969 19.265625 19.265625 18.667969 20 18.667969 L 44 18.667969 C 44.734375 18.667969 45.332031 19.265625 45.332031 20 C 45.332031 20.734375 44.734375 21.332031 44 21.332031 Z M 44 21.332031 "/>
<path style=" stroke:none;fill-rule:nonzero;fill:rgb(111,30,170);fill-opacity:1;" d="M 44 33.332031 L 20 33.332031 C 19.265625 33.332031 18.667969 32.734375 18.667969 32 C 18.667969 31.265625 19.265625 30.667969 20 30.667969 L 44 30.667969 C 44.734375 30.667969 45.332031 31.265625 45.332031 32 C 45.332031 32.734375 44.734375 33.332031 44 33.332031 Z M 44 33.332031 "/>
<path style=" stroke:none;fill-rule:nonzero;fill:rgb(111,30,170);fill-opacity:1;" d="M 44 45.332031 L 20 45.332031 C 19.265625 45.332031 18.667969 44.734375 18.667969 44 C 18.667969 43.265625 19.265625 42.667969 20 42.667969 L 44 42.667969 C 44.734375 42.667969 45.332031 43.265625 45.332031 44 C 45.332031 44.734375 44.734375 45.332031 44 45.332031 Z M 44 45.332031 "/>
</g>
</svg>
